<svg xmlns="http://www.w3.org/2000/svg" width="512" height="512" viewBox="0 0 512 512">
  <path d="M 393 0 L 392 1 L 391 1 L 390 1 L 389 1 L 388 1 L 387 1 L 386 2 L 385 2 L 384 2 L 383 2 L 382 3 L 381 3 L 380 3 L 379 3 L 378 4 L 377 4 L 376 5 L 375 5 L 374 5 L 373 6 L 372 6 L 371 6 L 370 7 L 369 7 L 368 8 L 367 8 L 366 9 L 365 9 L 364 10 L 363 10 L 362 11 L 361 11 L 360 12 L 359 12 L 358 13 L 357 14 L 356 14 L 355 15 L 354 15 L 353 16 L 352 17 L 351 18 L 350 18 L 349 19 L 348 20 L 347 21 L 346 22 L 345 22 L 344 23 L 343 24 L 342 25 L 341 26 L 340 27 L 339 28 L 338 29 L 337 30 L 336 31 L 336 32 L 335 33 L 334 34 L 333 35 L 332 36 L 332 37 L 331 38 L 330 39 L 330 40 L 329 41 L 328 42 L 328 43 L 327 44 L 327 45 L 326 46 L 325 47 L 325 48 L 324 49 L 324 50 L 323 51 L 323 52 L 322 53 L 322 54 L 321 55 L 321 56 L 321 57 L 320 58 L 320 59 L 320 60 L 319 61 L 319 62 L 318 63 L 318 64 L 318 65 L 318 66 L 317 67 L 317 68 L 317 69 L 317 70 L 316 71 L 316 72 L 316 73 L 316 74 L 315 75 L 315 76 L 315 77 L 315 78 L 315 79 L 315 80 L 315 81 L 314 82 L 314 83 L 314 84 L 314 85 L 314 86 L 314 87 L 314 88 L 314 89 L 314 90 L 314 91 L 314 92 L 314 93 L 314 94 L 314 95 L 314 96 L 314 97 L 314 98 L 314 99 L 314 100 L 314 101 L 315 102 L 315 103 L 315 104 L 315 105 L 314 106 L 313 107 L 312 107 L 311 108 L 310 108 L 309 109 L 308 109 L 307 110 L 306 110 L 305 111 L 304 111 L 303 112 L 302 112 L 301 113 L 300 113 L 299 114 L 298 114 L 297 115 L 296 115 L 295 116 L 294 116 L 293 117 L 292 117 L 291 117 L 290 118 L 289 118 L 288 119 L 287 119 L 286 120 L 285 120 L 284 121 L 283 121 L 282 122 L 281 122 L 280 123 L 279 123 L 278 124 L 277 124 L 276 125 L 275 125 L 274 126 L 273 126 L 272 127 L 271 127 L 270 128 L 269 128 L 268 129 L 267 129 L 266 130 L 265 130 L 264 130 L 263 131 L 262 131 L 261 132 L 260 132 L 259 133 L 258 133 L 257 134 L 256 134 L 255 135 L 254 135 L 253 136 L 252 136 L 251 137 L 250 137 L 249 138 L 248 138 L 247 139 L 246 139 L 245 140 L 244 140 L 243 141 L 242 141 L 241 142 L 240 142 L 239 142 L 238 143 L 237 143 L 236 144 L 235 144 L 234 145 L 233 145 L 232 146 L 231 146 L 230 147 L 229 147 L 228 148 L 227 148 L 226 149 L 225 149 L 224 150 L 223 150 L 222 151 L 221 151 L 220 152 L 219 152 L 218 153 L 217 153 L 216 154 L 215 154 L 214 155 L 213 155 L 212 155 L 211 156 L 210 156 L 209 157 L 208 157 L 207 158 L 206 158 L 205 159 L 204 159 L 203 160 L 202 160 L 201 161 L 200 161 L 199 162 L 198 162 L 197 163 L 196 163 L 195 164 L 194 164 L 193 165 L 192 165 L 191 166 L 190 166 L 189 167 L 188 167 L 187 167 L 186 168 L 185 168 L 184 169 L 183 169 L 182 170 L 181 170 L 180 171 L 179 171 L 178 172 L 177 172 L 176 173 L 175 173 L 174 174 L 173 174 L 172 175 L 171 175 L 170 176 L 169 176 L 168 177 L 167 177 L 166 178 L 165 178 L 164 179 L 163 179 L 162 180 L 161 180 L 160 180 L 159 181 L 158 180 L 157 179 L 156 179 L 155 178 L 154 177 L 153 177 L 152 176 L 151 176 L 150 175 L 149 174 L 148 174 L 147 173 L 146 173 L 145 172 L 144 172 L 143 171 L 142 171 L 141 171 L 140 170 L 139 170 L 138 169 L 137 169 L 136 169 L 135 168 L 134 168 L 133 168 L 132 167 L 131 167 L 130 167 L 129 166 L 128 166 L 127 166 L 126 166 L 125 166 L 124 165 L 123 165 L 122 165 L 121 165 L 120 164 L 119 164 L 118 164 L 117 164 L 116 164 L 115 164 L 114 164 L 113 164 L 112 164 L 111 164 L 110 163 L 109 163 L 108 163 L 107 163 L 106 163 L 105 163 L 104 163 L 103 163 L 102 163 L 101 163 L 100 164 L 99 164 L 98 164 L 97 164 L 96 164 L 95 164 L 94 164 L 93 164 L 92 164 L 91 164 L 90 165 L 89 165 L 88 165 L 87 165 L 86 165 L 85 165 L 84 166 L 83 166 L 82 166 L 81 166 L 80 167 L 79 167 L 78 167 L 77 167 L 76 168 L 75 168 L 74 169 L 73 169 L 72 169 L 71 170 L 70 170 L 69 170 L 68 171 L 67 171 L 66 172 L 65 172 L 64 173 L 63 173 L 62 174 L 61 174 L 60 175 L 59 175 L 58 176 L 57 177 L 56 177 L 55 178 L 54 178 L 53 179 L 52 180 L 51 180 L 50 181 L 49 182 L 48 183 L 47 183 L 46 184 L 45 185 L 44 186 L 43 187 L 42 188 L 41 189 L 40 190 L 39 191 L 38 192 L 37 193 L 36 194 L 35 195 L 34 196 L 33 197 L 32 198 L 32 199 L 31 200 L 30 201 L 29 202 L 29 203 L 28 204 L 27 205 L 27 206 L 26 207 L 26 208 L 25 209 L 24 210 L 24 211 L 23 212 L 23 213 L 22 214 L 22 215 L 21 216 L 21 217 L 20 218 L 20 219 L 20 220 L 19 221 L 19 222 L 18 223 L 18 224 L 18 225 L 17 226 L 17 227 L 17 228 L 16 229 L 16 230 L 16 231 L 16 232 L 15 233 L 15 234 L 15 235 L 15 236 L 14 237 L 14 238 L 14 239 L 14 240 L 14 241 L 14 242 L 13 243 L 13 244 L 13 245 L 13 246 L 13 247 L 13 248 L 13 249 L 13 250 L 13 251 L 13 252 L 13 253 L 13 254 L 13 255 L 13 256 L 13 257 L 13 258 L 13 259 L 13 260 L 13 261 L 13 262 L 13 263 L 13 264 L 13 265 L 13 266 L 13 267 L 13 268 L 14 269 L 14 270 L 14 271 L 14 272 L 14 273 L 14 274 L 15 275 L 15 276 L 15 277 L 15 278 L 16 279 L 16 280 L 16 281 L 16 282 L 17 283 L 17 284 L 17 285 L 18 286 L 18 287 L 18 288 L 19 289 L 19 290 L 20 291 L 20 292 L 20 293 L 21 294 L 21 295 L 22 296 L 22 297 L 23 298 L 23 299 L 24 300 L 24 301 L 25 302 L 26 303 L 26 304 L 27 305 L 27 306 L 28 307 L 29 308 L 29 309 L 30 310 L 31 311 L 32 312 L 32 313 L 33 314 L 34 315 L 35 316 L 36 317 L 37 318 L 38 319 L 39 320 L 40 321 L 41 322 L 42 323 L 43 324 L 44 325 L 45 326 L 46 327 L 47 328 L 48 328 L 49 329 L 50 330 L 51 331 L 52 331 L 53 332 L 54 333 L 55 333 L 56 334 L 57 334 L 58 335 L 59 336 L 60 336 L 61 337 L 62 337 L 63 338 L 64 338 L 65 339 L 66 339 L 67 340 L 68 340 L 69 341 L 70 341 L 71 341 L 72 342 L 73 342 L 74 342 L 75 343 L 76 343 L 77 344 L 78 344 L 79 344 L 80 344 L 81 345 L 82 345 L 83 345 L 84 345 L 85 346 L 86 346 L 87 346 L 88 346 L 89 346 L 90 346 L 91 347 L 92 347 L 93 347 L 94 347 L 95 347 L 96 347 L 97 347 L 98 347 L 99 347 L 100 347 L 101 348 L 102 348 L 103 348 L 104 348 L 105 348 L 106 348 L 107 348 L 108 348 L 109 348 L 110 348 L 111 347 L 112 347 L 113 347 L 114 347 L 115 347 L 116 347 L 117 347 L 118 347 L 119 347 L 120 347 L 121 346 L 122 346 L 123 346 L 124 346 L 125 345 L 126 345 L 127 345 L 128 345 L 129 345 L 130 344 L 131 344 L 132 344 L 133 343 L 134 343 L 135 343 L 136 342 L 137 342 L 138 342 L 139 341 L 140 341 L 141 340 L 142 340 L 143 340 L 144 339 L 145 339 L 146 338 L 147 338 L 148 337 L 149 337 L 150 336 L 151 335 L 152 335 L 153 334 L 154 334 L 155 333 L 156 332 L 157 332 L 158 331 L 159 330 L 160 331 L 161 331 L 162 331 L 163 332 L 164 332 L 165 333 L 166 333 L 167 334 L 168 334 L 169 335 L 170 335 L 171 336 L 172 336 L 173 337 L 174 337 L 175 338 L 176 338 L 177 339 L 178 339 L 179 340 L 180 340 L 181 341 L 182 341 L 183 342 L 184 342 L 185 343 L 186 343 L 187 344 L 188 344 L 189 344 L 190 345 L 191 345 L 192 346 L 193 346 L 194 347 L 195 347 L 196 348 L 197 348 L 198 349 L 199 349 L 200 350 L 201 350 L 202 351 L 203 351 L 204 352 L 205 352 L 206 353 L 207 353 L 208 354 L 209 354 L 210 355 L 211 355 L 212 356 L 213 356 L 214 356 L 215 357 L 216 357 L 217 358 L 218 358 L 219 359 L 220 359 L 221 360 L 222 360 L 223 361 L 224 361 L 225 362 L 226 362 L 227 363 L 228 363 L 229 364 L 230 364 L 231 365 L 232 365 L 233 366 L 234 366 L 235 367 L 236 367 L 237 368 L 238 368 L 239 369 L 240 369 L 241 369 L 242 370 L 243 370 L 244 371 L 245 371 L 246 372 L 247 372 L 248 373 L 249 373 L 250 374 L 251 374 L 252 375 L 253 375 L 254 376 L 255 376 L 256 377 L 257 377 L 258 378 L 259 378 L 260 379 L 261 379 L 262 380 L 263 380 L 264 381 L 265 381 L 266 381 L 267 382 L 268 382 L 269 383 L 270 383 L 271 384 L 272 384 L 273 385 L 274 385 L 275 386 L 276 386 L 277 387 L 278 387 L 279 388 L 280 388 L 281 389 L 282 389 L 283 390 L 284 390 L 285 391 L 286 391 L 287 392 L 288 392 L 289 393 L 290 393 L 291 394 L 292 394 L 293 394 L 294 395 L 295 395 L 296 396 L 297 396 L 298 397 L 299 397 L 300 398 L 301 398 L 302 399 L 303 399 L 304 400 L 305 400 L 306 401 L 307 401 L 308 402 L 309 402 L 310 403 L 311 403 L 312 404 L 313 404 L 314 405 L 315 406 L 315 407 L 315 408 L 315 409 L 314 410 L 314 411 L 314 412 L 314 413 L 314 414 L 314 415 L 314 416 L 314 417 L 314 418 L 314 419 L 314 420 L 314 421 L 314 422 L 314 423 L 314 424 L 314 425 L 314 426 L 314 427 L 314 428 L 314 429 L 315 430 L 315 431 L 315 432 L 315 433 L 315 434 L 315 435 L 315 436 L 316 437 L 316 438 L 316 439 L 316 440 L 317 441 L 317 442 L 317 443 L 317 444 L 318 445 L 318 446 L 318 447 L 318 448 L 319 449 L 319 450 L 319 451 L 320 452 L 320 453 L 321 454 L 321 455 L 321 456 L 322 457 L 322 458 L 323 459 L 323 460 L 324 461 L 324 462 L 325 463 L 325 464 L 326 465 L 326 466 L 327 467 L 328 468 L 328 469 L 329 470 L 330 471 L 330 472 L 331 473 L 332 474 L 332 475 L 333 476 L 334 477 L 335 478 L 336 479 L 336 480 L 337 481 L 338 482 L 339 483 L 340 484 L 341 485 L 342 486 L 343 487 L 344 488 L 345 489 L 346 489 L 347 490 L 348 491 L 349 492 L 350 493 L 351 493 L 352 494 L 353 495 L 354 496 L 355 496 L 356 497 L 357 497 L 358 498 L 359 499 L 360 499 L 361 500 L 362 500 L 363 501 L 364 501 L 365 502 L 366 502 L 367 503 L 368 503 L 369 504 L 370 504 L 371 505 L 372 505 L 373 505 L 374 506 L 375 506 L 376 506 L 377 507 L 378 507 L 379 508 L 380 508 L 381 508 L 382 508 L 383 509 L 384 509 L 385 509 L 386 509 L 387 510 L 388 510 L 389 510 L 390 510 L 391 510 L 392 510 L 393 511 L 394 511 L 395 511 L 396 511 L 397 511 L 398 511 L 399 511 L 400 511 L 401 511 L 402 511 L 403 511 L 404 511 L 405 511 L 406 511 L 407 511 L 408 511 L 409 511 L 410 511 L 411 511 L 412 511 L 413 511 L 414 511 L 415 511 L 416 511 L 417 511 L 418 511 L 419 511 L 420 510 L 421 510 L 422 510 L 423 510 L 424 510 L 425 510 L 426 509 L 427 509 L 428 509 L 429 509 L 430 508 L 431 508 L 432 508 L 433 508 L 434 507 L 435 507 L 436 507 L 437 506 L 438 506 L 439 505 L 440 505 L 441 505 L 442 504 L 443 504 L 444 503 L 445 503 L 446 503 L 447 502 L 448 502 L 449 501 L 450 501 L 451 500 L 452 499 L 453 499 L 454 498 L 455 498 L 456 497 L 457 496 L 458 496 L 459 495 L 460 494 L 461 494 L 462 493 L 463 492 L 464 491 L 465 491 L 466 490 L 467 489 L 468 488 L 469 487 L 470 486 L 471 485 L 472 484 L 473 483 L 474 482 L 475 481 L 476 480 L 477 479 L 478 478 L 478 477 L 479 476 L 480 475 L 481 474 L 481 473 L 482 472 L 483 471 L 483 470 L 484 469 L 485 468 L 485 467 L 486 466 L 486 465 L 487 464 L 488 463 L 488 462 L 489 461 L 489 460 L 489 459 L 490 458 L 490 457 L 491 456 L 491 455 L 492 454 L 492 453 L 492 452 L 493 451 L 493 450 L 494 449 L 494 448 L 494 447 L 495 446 L 495 445 L 495 444 L 495 443 L 496 442 L 496 441 L 496 440 L 496 439 L 497 438 L 497 437 L 497 436 L 497 435 L 497 434 L 497 433 L 497 432 L 498 431 L 498 430 L 498 429 L 498 428 L 498 427 L 498 426 L 498 425 L 498 424 L 498 423 L 498 422 L 498 421 L 498 420 L 498 419 L 498 418 L 498 417 L 498 416 L 498 415 L 498 414 L 498 413 L 498 412 L 498 411 L 498 410 L 498 409 L 498 408 L 498 407 L 497 406 L 497 405 L 497 404 L 497 403 L 497 402 L 497 401 L 496 400 L 496 399 L 496 398 L 496 397 L 495 396 L 495 395 L 495 394 L 495 393 L 494 392 L 494 391 L 494 390 L 493 389 L 493 388 L 493 387 L 492 386 L 492 385 L 492 384 L 491 383 L 491 382 L 490 381 L 490 380 L 489 379 L 489 378 L 488 377 L 488 376 L 487 375 L 487 374 L 486 373 L 485 372 L 485 371 L 484 370 L 484 369 L 483 368 L 482 367 L 482 366 L 481 365 L 480 364 L 479 363 L 479 362 L 478 361 L 477 360 L 476 359 L 475 358 L 474 357 L 474 356 L 473 355 L 472 354 L 471 353 L 470 352 L 469 352 L 468 351 L 467 350 L 466 349 L 465 348 L 464 347 L 463 346 L 462 346 L 461 345 L 460 344 L 459 343 L 458 343 L 457 342 L 456 342 L 455 341 L 454 340 L 453 340 L 452 339 L 451 338 L 450 338 L 449 337 L 448 337 L 447 336 L 446 336 L 445 336 L 444 335 L 443 335 L 442 334 L 441 334 L 440 333 L 439 333 L 438 333 L 437 332 L 436 332 L 435 332 L 434 331 L 433 331 L 432 331 L 431 330 L 430 330 L 429 330 L 428 330 L 427 329 L 426 329 L 425 329 L 424 329 L 423 329 L 422 328 L 421 328 L 420 328 L 419 328 L 418 328 L 417 328 L 416 328 L 415 327 L 414 327 L 413 327 L 412 327 L 411 327 L 410 327 L 409 327 L 408 327 L 407 327 L 406 327 L 405 327 L 404 327 L 403 327 L 402 327 L 401 327 L 400 327 L 399 327 L 398 327 L 397 328 L 396 328 L 395 328 L 394 328 L 393 328 L 392 328 L 391 328 L 390 329 L 389 329 L 388 329 L 387 329 L 386 329 L 385 329 L 384 330 L 383 330 L 382 330 L 381 331 L 380 331 L 379 331 L 378 331 L 377 332 L 376 332 L 375 332 L 374 333 L 373 333 L 372 334 L 371 334 L 370 334 L 369 335 L 368 335 L 367 336 L 366 336 L 365 337 L 364 337 L 363 338 L 362 338 L 361 339 L 360 339 L 359 340 L 358 341 L 357 341 L 356 342 L 355 342 L 354 343 L 353 344 L 352 344 L 351 345 L 350 346 L 349 347 L 348 348 L 347 348 L 346 349 L 345 350 L 344 351 L 343 352 L 342 353 L 341 354 L 340 355 L 339 356 L 338 357 L 337 356 L 336 356 L 335 355 L 334 355 L 333 354 L 332 354 L 331 354 L 330 353 L 329 353 L 328 352 L 327 352 L 326 351 L 325 351 L 324 350 L 323 350 L 322 349 L 321 349 L 320 348 L 319 348 L 318 347 L 317 347 L 316 346 L 315 346 L 314 345 L 313 345 L 312 344 L 311 344 L 310 343 L 309 343 L 308 342 L 307 342 L 306 341 L 305 341 L 304 341 L 303 340 L 302 340 L 301 339 L 300 339 L 299 338 L 298 338 L 297 337 L 296 337 L 295 336 L 294 336 L 293 335 L 292 335 L 291 334 L 290 334 L 289 333 L 288 333 L 287 332 L 286 332 L 285 331 L 284 331 L 283 330 L 282 330 L 281 329 L 280 329 L 279 328 L 278 328 L 277 328 L 276 327 L 275 327 L 274 326 L 273 326 L 272 325 L 271 325 L 270 324 L 269 324 L 268 323 L 267 323 L 266 322 L 265 322 L 264 321 L 263 321 L 262 320 L 261 320 L 260 319 L 259 319 L 258 318 L 257 318 L 256 317 L 255 317 L 254 316 L 253 316 L 252 316 L 251 315 L 250 315 L 249 314 L 248 314 L 247 313 L 246 313 L 245 312 L 244 312 L 243 311 L 242 311 L 241 310 L 240 310 L 239 309 L 238 309 L 237 308 L 236 308 L 235 307 L 234 307 L 233 306 L 232 306 L 231 305 L 230 305 L 229 304 L 228 304 L 227 303 L 226 303 L 225 303 L 224 302 L 223 302 L 222 301 L 221 301 L 220 300 L 219 300 L 218 299 L 217 299 L 216 298 L 215 298 L 214 297 L 213 297 L 212 296 L 211 296 L 210 295 L 209 295 L 208 294 L 207 294 L 206 293 L 205 293 L 204 292 L 203 292 L 202 291 L 201 291 L 200 291 L 199 290 L 198 290 L 197 289 L 196 289 L 195 288 L 194 288 L 193 287 L 192 286 L 192 285 L 193 284 L 193 283 L 193 282 L 193 281 L 194 280 L 194 279 L 194 278 L 195 277 L 195 276 L 195 275 L 195 274 L 195 273 L 196 272 L 196 271 L 196 270 L 196 269 L 196 268 L 196 267 L 196 266 L 197 265 L 197 264 L 197 263 L 197 262 L 197 261 L 197 260 L 197 259 L 197 258 L 197 257 L 197 256 L 197 255 L 197 254 L 197 253 L 197 252 L 197 251 L 197 250 L 197 249 L 197 248 L 197 247 L 197 246 L 196 245 L 196 244 L 196 243 L 196 242 L 196 241 L 196 240 L 196 239 L 195 238 L 195 237 L 195 236 L 195 235 L 194 234 L 194 233 L 194 232 L 194 231 L 193 230 L 193 229 L 193 228 L 193 227 L 192 226 L 192 225 L 193 224 L 194 223 L 195 223 L 196 222 L 197 222 L 198 221 L 199 221 L 200 220 L 201 220 L 202 220 L 203 219 L 204 219 L 205 218 L 206 218 L 207 217 L 208 217 L 209 216 L 210 216 L 211 215 L 212 215 L 213 214 L 214 214 L 215 213 L 216 213 L 217 212 L 218 212 L 219 211 L 220 211 L 221 210 L 222 210 L 223 209 L 224 209 L 225 208 L 226 208 L 227 208 L 228 207 L 229 207 L 230 206 L 231 206 L 232 205 L 233 205 L 234 204 L 235 204 L 236 203 L 237 203 L 238 202 L 239 202 L 240 201 L 241 201 L 242 200 L 243 200 L 244 199 L 245 199 L 246 198 L 247 198 L 248 197 L 249 197 L 250 196 L 251 196 L 252 196 L 253 195 L 254 195 L 255 194 L 256 194 L 257 193 L 258 193 L 259 192 L 260 192 L 261 191 L 262 191 L 263 190 L 264 190 L 265 189 L 266 189 L 267 188 L 268 188 L 269 187 L 270 187 L 271 186 L 272 186 L 273 185 L 274 185 L 275 184 L 276 184 L 277 183 L 278 183 L 279 183 L 280 182 L 281 182 L 282 181 L 283 181 L 284 180 L 285 180 L 286 179 L 287 179 L 288 178 L 289 178 L 290 177 L 291 177 L 292 176 L 293 176 L 294 175 L 295 175 L 296 174 L 297 174 L 298 173 L 299 173 L 300 172 L 301 172 L 302 171 L 303 171 L 304 171 L 305 170 L 306 170 L 307 169 L 308 169 L 309 168 L 310 168 L 311 167 L 312 167 L 313 166 L 314 166 L 315 165 L 316 165 L 317 164 L 318 164 L 319 163 L 320 163 L 321 162 L 322 162 L 323 161 L 324 161 L 325 160 L 326 160 L 327 159 L 328 159 L 329 158 L 330 158 L 331 158 L 332 157 L 333 157 L 334 156 L 335 156 L 336 155 L 337 155 L 338 154 L 339 155 L 340 156 L 341 157 L 342 158 L 343 159 L 344 160 L 345 161 L 346 162 L 347 163 L 348 163 L 349 164 L 350 165 L 351 166 L 352 167 L 353 167 L 354 168 L 355 169 L 356 169 L 357 170 L 358 170 L 359 171 L 360 172 L 361 172 L 362 173 L 363 173 L 364 174 L 365 174 L 366 175 L 367 175 L 368 176 L 369 176 L 370 177 L 371 177 L 372 177 L 373 178 L 374 178 L 375 179 L 376 179 L 377 179 L 378 180 L 379 180 L 380 180 L 381 180 L 382 181 L 383 181 L 384 181 L 385 182 L 386 182 L 387 182 L 388 182 L 389 182 L 390 182 L 391 183 L 392 183 L 393 183 L 394 183 L 395 183 L 396 183 L 397 183 L 398 184 L 399 184 L 400 184 L 401 184 L 402 184 L 403 184 L 404 184 L 405 184 L 406 184 L 407 184 L 408 184 L 409 184 L 410 184 L 411 184 L 412 184 L 413 184 L 414 184 L 415 184 L 416 183 L 417 183 L 418 183 L 419 183 L 420 183 L 421 183 L 422 183 L 423 182 L 424 182 L 425 182 L 426 182 L 427 182 L 428 181 L 429 181 L 430 181 L 431 181 L 432 180 L 433 180 L 434 180 L 435 179 L 436 179 L 437 179 L 438 178 L 439 178 L 440 178 L 441 177 L 442 177 L 443 176 L 444 176 L 445 176 L 446 175 L 447 175 L 448 174 L 449 174 L 450 173 L 451 173 L 452 172 L 453 171 L 454 171 L 455 170 L 456 170 L 457 169 L 458 168 L 459 168 L 460 167 L 461 166 L 462 165 L 463 165 L 464 164 L 465 163 L 466 162 L 467 161 L 468 160 L 469 160 L 470 159 L 471 158 L 472 157 L 473 156 L 474 155 L 474 154 L 475 153 L 476 152 L 477 151 L 478 150 L 479 149 L 479 148 L 480 147 L 481 146 L 482 145 L 482 144 L 483 143 L 484 142 L 484 141 L 485 140 L 486 139 L 486 138 L 487 137 L 487 136 L 488 135 L 488 134 L 489 133 L 489 132 L 490 131 L 490 130 L 491 129 L 491 128 L 492 127 L 492 126 L 492 125 L 493 124 L 493 123 L 493 122 L 494 121 L 494 120 L 494 119 L 495 118 L 495 117 L 495 116 L 495 115 L 496 114 L 496 113 L 496 112 L 496 111 L 497 110 L 497 109 L 497 108 L 497 107 L 497 106 L 497 105 L 498 104 L 498 103 L 498 102 L 498 101 L 498 100 L 498 99 L 498 98 L 498 97 L 498 96 L 498 95 L 498 94 L 498 93 L 498 92 L 498 91 L 498 90 L 498 89 L 498 88 L 498 87 L 498 86 L 498 85 L 498 84 L 498 83 L 498 82 L 498 81 L 498 80 L 497 79 L 497 78 L 497 77 L 497 76 L 497 75 L 497 74 L 497 73 L 496 72 L 496 71 L 496 70 L 496 69 L 495 68 L 495 67 L 495 66 L 495 65 L 494 64 L 494 63 L 494 62 L 493 61 L 493 60 L 492 59 L 492 58 L 492 57 L 491 56 L 491 55 L 490 54 L 490 53 L 489 52 L 489 51 L 489 50 L 488 49 L 488 48 L 487 47 L 486 46 L 486 45 L 485 44 L 485 43 L 484 42 L 483 41 L 483 40 L 482 39 L 481 38 L 481 37 L 480 36 L 479 35 L 478 34 L 478 33 L 477 32 L 476 31 L 475 30 L 474 29 L 473 28 L 472 27 L 471 26 L 470 25 L 469 24 L 468 23 L 467 22 L 466 21 L 465 20 L 464 20 L 463 19 L 462 18 L 461 17 L 460 17 L 459 16 L 458 15 L 457 15 L 456 14 L 455 13 L 454 13 L 453 12 L 452 12 L 451 11 L 450 10 L 449 10 L 448 9 L 447 9 L 446 8 L 445 8 L 444 8 L 443 7 L 442 7 L 441 6 L 440 6 L 439 6 L 438 5 L 437 5 L 436 4 L 435 4 L 434 4 L 433 3 L 432 3 L 431 3 L 430 3 L 429 2 L 428 2 L 427 2 L 426 2 L 425 1 L 424 1 L 423 1 L 422 1 L 421 1 L 420 1 L 419 0 L 418 0 L 417 0 L 416 0 L 415 0 L 414 0 L 413 0 L 412 0 L 411 0 L 410 0 L 409 0 L 408 0 L 407 0 L 406 0 L 405 0 L 404 0 L 403 0 L 402 0 L 401 0 L 400 0 L 399 0 L 398 0 L 397 0 L 396 0 L 395 0 L 394 0 Z" fill="#ffffff" fill-rule="evenodd"/>
</svg>